<svg xmlns="http://www.w3.org/2000/svg" viewBox="0 0 100 100">
  <defs>
    <linearGradient id="leaf" x1="0.15" y1="0" x2="0.85" y2="1">
      <stop offset="0" stop-color="#6aa24c"/>
      <stop offset="1" stop-color="#2b6a34"/>
    </linearGradient>
    <linearGradient id="arc" x1="0" y1="0" x2="1" y2="1">
      <stop offset="0" stop-color="#d9bd6e"/>
      <stop offset="1" stop-color="#b8923c"/>
    </linearGradient>
  </defs>
  <rect width="100" height="100" rx="22" fill="#f6f1e4"/>
  <path d="M63 15 A 37 37 0 0 1 48 84" fill="none" stroke="url(#arc)" stroke-width="3.2" stroke-linecap="round"/>
  <path d="M45 11C29 19 18 38 20 56c1.1 13 9.4 22.6 22.5 27.5 3-22 4.3-50 5.5-66-1-3.8-2-5.6-3-6.5Z" fill="url(#leaf)"/>
  <g stroke-linecap="round" fill="none">
    <path d="M54 84V46" stroke="#1e3a5f" stroke-width="2.4"/>
    <path d="M54 60L42 48" stroke="#1e3a5f" stroke-width="2.4"/>
    <path d="M54 52L65 40" stroke="#1e3a5f" stroke-width="2.4"/>
  </g>
  <g fill="#f6f1e4">
    <circle cx="54" cy="30" r="4" stroke="#1e3a5f" stroke-width="2.2"/>
    <circle cx="39" cy="46" r="3.3" stroke="#1e3a5f" stroke-width="2.1"/>
    <circle cx="67" cy="37" r="3.3" stroke="#b8923c" stroke-width="2"/>
  </g>
  <rect x="71" y="33" width="8" height="8" rx="1.4" fill="#1e3a5f"/>
  <rect x="81" y="28" width="5" height="5" rx="1" fill="#b8923c"/>
  <rect x="76" y="45" width="5.5" height="5.5" rx="1.1" fill="#2f7d6a"/>
</svg>
